<?xml version="1.0" encoding="UTF-8"?>
<svg id="Layer_1" xmlns="http://www.w3.org/2000/svg" version="1.1" viewBox="0 0 32 32">
  <!-- Generator: Adobe Illustrator 30.0.0, SVG Export Plug-In . SVG Version: 2.1.1 Build 123)  -->
  <defs>
    <style>
      .st0 {
        fill-rule: evenodd;
      }
    </style>
  </defs>
  <g id="OPt-2">
    <g id="prog2_pro3_Mobile-Portrait_opt2-Copy-2">
      <g id="nav">
        <g id="Group-6">
          <g id="ic_home">
            <g id="Group">
              <path id="Shape" class="st0" d="M26.76,9.15l-1.19.92-1.92,1.49c-.25-1.29-1-2.4-2.04-3.12l3.69-2.87-1.15-1.52c-.47-.63-.35-1.51.27-1.99l2.79,3.69c.41.55.56,1.21.45,1.84-.09.59-.4,1.15-.91,1.53h0Z"/>
              <path id="Shape1" class="st0" d="M15.04,22.07c4.12-2.16,7.79-2.77,8.72-1.29.76,1.21-.53,3.53-3.07,5.89l2.4,3.91h1.64c.75.03,1.36.64,1.36,1.41h-4.95l-.87-1.41-1.39-2.27-.55-.88c.19-.32.31-.69.31-1.09,0-1.16-.93-2.11-2.08-2.11h-.19l-1.35-2.19h0v.03Z"/>
              <path id="Shape2" class="st0" d="M3.52,8.6c.21-1.05,1.13-1.84,2.23-1.84.32,0,.61.07.88.19.81.35,1.4,1.17,1.4,2.13v10.96c0,.79.63,1.41,1.4,1.41.56,0,1.04-.33,1.27-.83.01-.04.04-.09.05-.13l1.29-3.25-2.52-8.6h0c-.03-.11-.05-.2-.08-.31-.92-3.37.73-6.89,3.81-8.33l5.92,2.09c.73.25,1.12,1.05.87,1.79l-1.51-.55c-.59-.21-1.24.09-1.45.69-.21.6.09,1.27.69,1.48l1.55.56c-.27.72-1.07,1.09-1.79.83l-1.64-.61c-.12.67.25,1.35.91,1.57l3.13,1.16c1.32.57,2.25,1.88,2.32,3.41v.28-.03h4.89v-1.91c0-.53.65-1,1.07-1.24l.33-.17v4.68c-.01,1.32-1.08,2.39-2.39,2.39h-5.52c-.49,0-.96.05-1.41.17.03,0,.04-.01.07-.03-.03,0-.05.01-.07.03h-.04c-2.45.61-4.32,2.75-4.57,5.37v.13c0,.15-.01.31-.01.45,0,1.47.51,2.83,1.36,3.88.07.08.13.16.19.23.17.25.28.56.28.89,0,.85-.68,1.55-1.53,1.55-.31,0-.59-.09-.83-.24l-3.09-1.85c-.43.24-.72.71-.72,1.24,0,.35.12.67.33.92l1.28,1.41h1.64c.75.03,1.36.64,1.36,1.41h-4.48c0-1.33-1.07-2.41-2.39-2.41v-4.12c1.09-.23,1.92-1.2,1.92-2.37v-.17c-.13.03-.28.04-.43.04-.55,0-1.05-.16-1.48-.41-.84-.51-1.4-1.44-1.4-2.49v-10.96c0-.51-.41-.92-.91-.92s-.88.39-.91.87c.63.44,1.04,1.16,1.04,1.99,0,1.33-1.07,2.41-2.39,2.41v-4.36c0-.16.01-.32.05-.47h.01Z"/>
            </g>
          </g>
        </g>
      </g>
    </g>
  </g>
</svg>